<?xml version="1.0" encoding="utf-8"?>
<!-- Generator: Adobe Illustrator 25.3.0, SVG Export Plug-In . SVG Version: 6.00 Build 0)  -->
<svg version="1.1" id="Layer_1" xmlns="http://www.w3.org/2000/svg" xmlns:xlink="http://www.w3.org/1999/xlink" x="0px" y="0px"
	 viewBox="0 0 181.1 118.3" style="enable-background:new 0 0 181.1 118.3;" xml:space="preserve">
<style type="text/css">
	.st0{fill:#323955;}
	.st1{fill:#75B6D2;}
</style>
<g>
	<path class="st0" d="M30.5,97.9v-8.4h21v8.4H30.5z"/>
	<g>
		<g>
			<path class="st1" d="M30.5,70.4V29H49c2,0,3.8,0.4,5.5,1.2c1.7,0.8,3.1,1.9,4.3,3.2c1.2,1.3,2.1,2.8,2.8,4.5c0.7,1.7,1,3.4,1,5.1
				c0,1.7-0.3,3.3-0.8,4.8c-0.6,1.6-1.4,2.9-2.4,4.1c-1,1.2-2.2,2.2-3.6,3L65,70.4H54.4l-7.9-13.3H40v13.3H30.5z M40,48.7h8.8
				c0.7,0,1.4-0.2,2-0.7c0.6-0.5,1.1-1.1,1.5-2c0.4-0.9,0.6-1.8,0.6-2.9c0-1.2-0.2-2.2-0.7-3c-0.4-0.8-1-1.5-1.7-2
				c-0.7-0.5-1.4-0.7-2.1-0.7H40V48.7z"/>
			<path class="st1" d="M76.7,70.4V29h28v8.4H86.3v8.9h15.3v7.9H86.3v16.3H76.7z"/>
			<path class="st1" d="M114.1,49.3c0-2.5,0.5-4.9,1.4-7.4c0.9-2.4,2.3-4.6,4.1-6.6c1.8-2,4-3.6,6.6-4.8c2.6-1.2,5.5-1.8,8.7-1.8
				c3.9,0,7.3,0.8,10.1,2.5c2.9,1.7,5,3.8,6.4,6.5L144,43c-0.6-1.5-1.4-2.6-2.4-3.5c-1-0.8-2.2-1.4-3.4-1.7
				c-1.2-0.3-2.4-0.5-3.6-0.5c-1.8,0-3.4,0.4-4.7,1.1c-1.4,0.7-2.5,1.7-3.4,2.9c-0.9,1.2-1.6,2.5-2,4c-0.4,1.5-0.7,2.9-0.7,4.4
				c0,1.7,0.3,3.3,0.8,4.8c0.5,1.5,1.3,2.9,2.2,4c1,1.2,2.1,2.1,3.4,2.8c1.3,0.7,2.8,1,4.5,1c1.2,0,2.4-0.2,3.6-0.6
				c1.2-0.4,2.3-1,3.4-1.8c1-0.9,1.8-2,2.4-3.4l7.9,4.7c-0.9,2-2.2,3.7-4.1,5.2c-1.9,1.4-4,2.5-6.3,3.3c-2.3,0.8-4.7,1.1-7,1.1
				c-3,0-5.7-0.6-8.2-1.8c-2.5-1.2-4.6-2.9-6.5-4.9c-1.8-2-3.2-4.3-4.2-6.9C114.6,54.5,114.1,52,114.1,49.3z"/>
		</g>
	</g>
</g>
</svg>
