<?xml version="1.0" encoding="utf-8"?>
<!-- Generator: Adobe Illustrator 26.3.1, SVG Export Plug-In . SVG Version: 6.00 Build 0)  -->
<svg version="1.1" id="Layer_1" xmlns="http://www.w3.org/2000/svg" xmlns:xlink="http://www.w3.org/1999/xlink" x="0px" y="0px"
	 viewBox="0 0 500 500" style="enable-background:new 0 0 500 500;" xml:space="preserve">
<style type="text/css">
	.st0{fill:#76B7D3;}
	.st1{fill:#FFFFFF;}
</style>
<g id="Layer_2_00000091728840658209197880000010268868301124220093_">
	<g id="Layer_1-2">
		<rect class="st0" width="500" height="500"/>
		<path class="st1" d="M129.5,318.6V302H198v16.7L129.5,318.6z"/>
		<path class="st1" d="M129.5,264.1V182h36.7c3.8,0,7.5,0.8,10.9,2.4c3.2,1.5,6.1,3.7,8.5,6.3c2.4,2.6,4.3,5.6,5.6,8.9
			c1.3,3.2,2,6.6,2,10.1c0,3.2-0.5,6.5-1.6,9.5c-1.1,3-2.7,5.7-4.8,8.1c-2,2.4-4.4,4.4-7.1,5.9l18.3,30.7h-21l-15.7-26.4h-13v26.4
			H129.5z M148.4,221.1h17.4c1.5,0,2.9-0.5,4-1.4c1.3-1.1,2.3-2.4,3-4c0.8-1.8,1.2-3.7,1.2-5.7c0.1-2.1-0.4-4.1-1.4-5.9
			c-0.8-1.6-1.9-3-3.4-4c-1.2-0.9-2.7-1.4-4.2-1.4h-16.7L148.4,221.1z"/>
		<path class="st1" d="M221.1,264.1V182h55.5v16.6h-36.5v17.6h30.3V232h-30.3v32.3h-19L221.1,264.1z"/>
		<path class="st1" d="M295.3,222.2c0.1-5,1-10,2.8-14.7c1.9-4.8,4.6-9.3,8.1-13.1c3.7-4,8.1-7.2,13.1-9.5
			c5.4-2.4,11.3-3.7,17.2-3.6c7.7,0,14.5,1.6,20,5c5.4,3,9.8,7.5,12.7,12.9l-14.6,10.4c-1.8-5.2-6.1-9.1-11.5-10.3
			c-2.3-0.6-4.7-1-7.1-1c-3.2-0.1-6.4,0.7-9.3,2.2c-2.7,1.4-5,3.3-6.7,5.8c-1.8,2.4-3.2,5-4,7.9c-0.8,2.8-1.3,5.8-1.4,8.7
			c0,3.2,0.5,6.5,1.6,9.5c1,2.9,2.4,5.6,4.4,7.9c1.9,2.3,4.1,4.2,6.7,5.6c2.8,1.4,5.8,2.1,8.9,2c2.4,0,4.8-0.4,7.1-1.2
			c2.4-0.8,4.7-2,6.8-3.6c2.1-1.9,3.7-4.2,4.8-6.7l15.7,9.3c-1.8,4.1-4.6,7.6-8.1,10.3c-3.8,2.8-8,5-12.5,6.5
			c-4.5,1.5-9.1,2.2-13.8,2.2c-5.6,0.1-11.2-1.2-16.3-3.6c-4.9-2.4-9.2-5.7-12.9-9.7c-3.6-4-6.4-8.7-8.3-13.7
			C296.4,232.9,295.3,227.6,295.3,222.2z"/>
	</g>
</g>
</svg>
